P2
5 5
255
10 10 10 10 10
10 10 10 10 10
148 148 148 148 148
255 255 255 255 255
255 255 255 255 255
